<svg width="64" height="64" viewBox="0 0 64 64" fill="none" xmlns="http://www.w3.org/2000/svg">
<path d="M0 8C0 3.58172 3.58172 0 8 0H56C60.4183 0 64 3.58172 64 8V56C64 60.4183 60.4183 64 56 64H8C3.58172 64 0 60.4183 0 56V8Z" fill="white"/>
<path d="M29.2534 39.3725C30.531 42.8124 31.8668 46.8383 32.768 52C34.4967 42.0886 34.5661 36.2071 31.9448 24C31.9448 24 27.9758 35.9327 29.2534 39.3725Z" fill="#18473E"/>
<path d="M35.6229 39C35.7224 36.3337 35.5305 33.6561 35 30.6091L38.1957 25L39 31.9332C37.4518 34.139 36.3841 36.5497 35.6229 39Z" fill="#18473E"/>
<path d="M22 30C27.5355 38.4234 29.7675 43.417 32 55C24.9412 50.6522 24.3529 50.6522 24.3529 44.1304C24.3529 37.6087 22 30 22 30Z" fill="#18473E"/>
<path d="M43.3 53.5786C49.1175 50.829 53.2 44.3866 53.2 36.8776V16.7959C53.2 10.9184 55 7 55 7H52.3C47.3294 7 43.3 11.3858 43.3 16.7959V41.2857C43.3 50.5918 37 55 37 55C39.2345 55 41.3634 54.4939 43.3 53.5786Z" fill="#1E2E2B"/>
<path d="M41.9198 31C35.5462 37.2205 34.6432 46.8233 34 54C34 54 36.5168 53.3169 38.5 51C39.6481 49.6587 41.0677 46.8953 41.5 44C42.3623 38.2255 41.9198 31 41.9198 31Z" fill="#18473E"/>
<path d="M14 33C19.075 33 23 36.543 23 41V45C23 51 23 51 29 55C29 55 14 55 14 45V41V33Z" fill="#1E2E2B"/>
</svg>
